<svg width="34" height="34" viewBox="0 0 34 34" fill="none" xmlns="http://www.w3.org/2000/svg">
<path d="M17 17.0002C19.347 17.0002 21.3502 16.1698 23.0102 14.5098C24.6703 12.8498 25.5005 10.8466 25.5005 8.4999C25.5005 6.15363 24.6703 4.15036 23.0102 2.48994C21.3497 0.829979 19.3464 0 17 0C14.6537 0 12.6501 0.829979 10.9902 2.48994C9.32989 4.15036 8.49976 6.15355 8.49976 8.4999C8.49976 10.8466 9.32989 12.8498 10.9902 14.5098C12.6506 16.1698 14.6536 17.0002 17 17.0002Z" fill="#200E32"/>
<path d="M32.5059 25.9761C32.4541 25.2311 32.3507 24.4266 32.196 23.5632C32.041 22.6998 31.8453 21.8996 31.6091 21.1614C31.3729 20.4238 31.0556 19.7043 30.6572 19.0032C30.2589 18.3023 29.8014 17.7047 29.2846 17.2101C28.7678 16.7157 28.1371 16.3212 27.3924 16.0262C26.6467 15.7311 25.824 15.5834 24.9238 15.5834C24.7911 15.5834 24.4811 15.742 23.9941 16.0593C23.5075 16.3767 22.9577 16.7309 22.3453 17.1222C21.7329 17.5127 20.9356 17.8672 19.9547 18.1839C18.9733 18.5013 17.9884 18.66 16.9993 18.66C16.0106 18.66 15.0256 18.5013 14.0444 18.1839C13.0632 17.8672 12.2661 17.5127 11.6537 17.1222C11.0414 16.7309 10.4917 16.3768 10.0048 16.0593C9.5177 15.742 9.20796 15.5834 9.07514 15.5834C8.175 15.5834 7.35223 15.7311 6.60707 16.0262C5.86175 16.3212 5.23095 16.716 4.71436 17.2101C4.19792 17.7047 3.7404 18.3023 3.34212 19.0032C2.94384 19.7043 2.62658 20.4241 2.39042 21.1614C2.15433 21.8996 1.95872 22.6998 1.80381 23.5632C1.64875 24.4266 1.54547 25.2305 1.49376 25.9761C1.44212 26.7216 1.41638 27.4853 1.41638 28.2674C1.41638 30.038 1.95515 31.4366 3.0323 32.4622C4.10969 33.4875 5.54124 34.0001 7.3268 34.0001H26.6736C28.459 34.0001 29.8904 33.4875 30.9679 32.4622C32.0457 31.4366 32.5841 30.0382 32.5841 28.2674C32.5839 27.4853 32.5582 26.7216 32.5059 25.9761Z" fill="#200E32"/>
</svg>
