<svg width="38" height="38" viewBox="0 0 38 38" fill="none" xmlns="http://www.w3.org/2000/svg">
<path d="M4.76072 13.8895C4.6717 12.1218 5.13933 10.3756 6.08563 8.9116L6.33213 8.55162L6.3525 8.53189L6.52363 8.33109L6.70291 8.12605L6.72328 8.10492C7.06554 7.75404 7.44447 7.44543 7.85328 7.18192L7.96873 7.10882L8.08417 7.04101L8.35581 6.88459C8.46582 6.83245 8.58534 6.77045 8.69535 6.71831C8.77549 6.68731 8.85562 6.64644 8.93575 6.61544C9.08651 6.55203 9.24677 6.49003 9.40704 6.43789C9.46136 6.41111 9.51841 6.38998 9.57681 6.37588L9.64166 6.34981L9.71263 6.32375C10.4433 6.10533 11.1944 5.95455 11.9536 5.8855L11.875 5.89471V4.31987C11.875 3.68842 12.3843 3.17787 13.0143 3.17787C13.6442 3.17787 14.155 3.68842 14.155 4.31987V9.29746C14.155 9.9289 13.6442 10.4409 13.0143 10.4409C12.3843 10.4409 11.875 9.9289 11.875 9.29746L11.8751 8.14667C11.1272 8.22155 10.3928 8.40764 9.69633 8.7024C7.89899 9.51097 7.0418 11.0508 6.96057 13.4911L6.95417 13.8839V14.4968H31.0469V13.8684C31.093 12.7382 30.8662 11.6137 30.3854 10.5977C29.9237 9.72826 29.1848 9.05328 28.2925 8.6869C27.7242 8.44227 27.129 8.27159 26.5208 8.17847L26.125 8.13038L26.125 9.29172C26.125 9.92044 25.6149 10.4297 24.985 10.4297C24.3552 10.4297 23.845 9.92044 23.845 9.29172L23.845 8.04488L14.1661 8.04573V5.78122L23.845 5.78071L23.845 4.31317C23.8393 3.68445 24.3466 3.17095 24.9765 3.16665C25.6063 3.16241 26.1208 3.66738 26.125 4.2961L26.126 5.88595C26.6791 5.94053 27.2278 6.03703 27.7678 6.17491L28.3047 6.32656C28.3482 6.33502 28.3808 6.34629 28.4405 6.36743C28.5003 6.38857 28.5505 6.4097 28.6103 6.42943C28.7692 6.48157 28.9172 6.54357 29.0707 6.60699C29.159 6.63799 29.2405 6.67885 29.3098 6.70985C29.4293 6.76199 29.5515 6.824 29.6493 6.87613C29.7498 6.92827 29.8462 6.98605 29.9304 7.03255C30.0146 7.07905 30.0798 7.13119 30.1505 7.17347C30.4581 7.37216 30.7504 7.59621 31.0235 7.84266L31.29 8.09646L31.3022 8.1176L31.4884 8.31523L31.6635 8.52344L31.673 8.54316C32.6973 9.95969 33.2482 11.68 33.25 13.4425L33.239 13.8839V14.4968H33.25V26.7744C33.25 32.1283 30.26 34.8333 24.3344 34.8333H13.652C7.73999 34.8333 4.75 32.1283 4.75 26.7744V14.4968H4.76072V13.8895ZM25.5168 25.7232C24.7829 25.7232 24.1985 26.3259 24.1985 27.0687C24.2121 27.8115 24.7965 28.4142 25.5168 28.4142C26.2371 28.4142 26.8215 27.8115 26.8215 27.0687C26.8215 26.3259 26.2371 25.7232 25.5168 25.7232ZM19.0068 25.7092C18.2729 25.7232 17.6885 26.3259 17.6885 27.0687C17.6885 27.8115 18.2865 28.4142 19.0068 28.4142C19.7271 28.4142 20.3115 27.8115 20.3115 27.0547C20.2979 26.3259 19.7271 25.7232 19.0068 25.7092ZM12.4832 25.7092C11.7493 25.7092 11.1649 26.3259 11.1785 27.0687C11.1785 27.8115 11.7629 28.4142 12.4832 28.4142C13.2035 28.4142 13.7879 27.7975 13.7879 27.0547C13.7879 26.3119 13.2035 25.7092 12.4832 25.7092ZM25.5168 19.9769C24.7829 19.9769 24.2121 20.5796 24.2121 21.3224C24.2121 22.0652 24.7965 22.6679 25.5168 22.6679C26.2371 22.6679 26.8215 22.0652 26.8215 21.3224C26.8215 20.5796 26.2371 19.9769 25.5168 19.9769ZM19.0068 19.9629C18.2729 19.9769 17.6885 20.5796 17.6885 21.3224C17.6885 22.0652 18.2865 22.6679 19.0068 22.6679C19.7271 22.6679 20.3115 22.0652 20.3115 21.3084C20.3115 20.5796 19.7271 19.9769 19.0068 19.9629ZM12.4968 19.9629C11.7629 19.9629 11.1785 20.5796 11.1785 21.3224C11.1785 22.0652 11.7629 22.6679 12.4832 22.6679C13.2171 22.6679 13.8015 22.0512 13.7879 21.3084C13.7879 20.5655 13.2035 19.9629 12.4968 19.9629Z" fill="#200E32"/>
</svg>
