<svg width="46" height="46" viewBox="0 0 46 46" fill="none" xmlns="http://www.w3.org/2000/svg">
<rect x="0.5" y="0.5" width="45" height="45" rx="21.5" stroke="#C4C4C4"/>
<path d="M16.4001 14.38L23.0001 20.98L29.6001 14.4C29.8629 14.1326 30.2255 13.9876 30.6 14C31.3522 14.0486 31.9515 14.6478 32 15.4C32.0036 15.7612 31.8591 16.1082 31.6 16.36L24.9801 23L31.6 29.64C31.8591 29.8918 32.0036 30.2388 32 30.6C31.9515 31.3522 31.3522 31.9514 30.6 32C30.2255 32.0124 29.8629 31.8674 29.6001 31.6L23.0001 25.02L16.4201 31.6C16.1573 31.8674 15.7947 32.0124 15.4201 32C14.6531 31.96 14.0401 31.347 14.0001 30.58C13.9965 30.2188 14.1411 29.8718 14.4001 29.62L21.0201 23L14.3801 16.36C14.1283 16.1048 13.9911 15.7584 14.0001 15.4C14.0487 14.6478 14.6479 14.0486 15.4001 14C15.7717 13.9824 16.1339 14.12 16.4001 14.38Z" fill="#C4C4C4"/>
</svg>
