<svg width="35" height="35" viewBox="0 0 35 35" fill="c4c4c4" xmlns="http://www.w3.org/2000/svg">
<path d="M33.75 10H25V1.25C25 0.5 24.5 0 23.75 0H11.25C10.5 0 10 0.5 10 1.25V10H1.25C0.5 10 0 10.5 0 11.25V23.75C0 24.5 0.5 25 1.25 25H10V33.75C10 34.5 10.5 35 11.25 35H23.75C24.5 35 25 34.5 25 33.75V25H33.75C34.5 25 35 24.5 35 23.75V11.25C35 10.5 34.5 10 33.75 10ZM27.5 18.75H18.75V27.5C18.75 28.25 18.25 28.75 17.5 28.75C16.75 28.75 16.25 28.25 16.25 27.5V18.75H7.5C6.75 18.75 6.25 18.25 6.25 17.5C6.25 16.75 6.75 16.25 7.5 16.25H16.25V7.5C16.25 6.75 16.75 6.25 17.5 6.25C18.25 6.25 18.75 6.75 18.75 7.5V16.25H27.5C28.25 16.25 28.75 16.75 28.75 17.5C28.75 18.25 28.25 18.75 27.5 18.75Z" fill="#C4C4C4"/>
</svg>
