<?xml version="1.0" encoding="UTF-8" standalone="no"?> <svg width="64" height="64" viewBox="0 0 64 64" fill="#c4c4c4" xmlns="http://www.w3.org/2000/svg">
<path d="M50.0001 7.46H43.4001V4C43.4001 3.46957 43.1894 2.96086 42.8143 2.58579C42.4393 2.21071 41.9306 2 41.4001 2H22.6301C22.0997 2 21.591 2.21071 21.2159 2.58579C20.8408 2.96086 20.6301 3.46957 20.6301 4V7.46H14.0001C12.1099 7.46265 10.2979 8.21469 8.96137 9.55125C7.62481 10.8878 6.87276 12.6998 6.87012 14.59V54.87C6.87276 56.7602 7.62481 58.5722 8.96137 59.9087C10.2979 61.2453 12.1099 61.9974 14.0001 62H50.0001C51.8903 61.9974 53.7023 61.2453 55.0389 59.9087C56.3754 58.5722 57.1275 56.7602 57.1301 54.87V14.59C57.1275 12.6998 56.3754 10.8878 55.0389 9.55125C53.7023 8.21469 51.8903 7.46265 50.0001 7.46V7.46ZM45.3001 52.46H18.4101C17.8797 52.46 17.371 52.2493 16.9959 51.8742C16.6208 51.4991 16.4101 50.9904 16.4101 50.46C16.4101 49.9296 16.6208 49.4209 16.9959 49.0458C17.371 48.6707 17.8797 48.46 18.4101 48.46H45.2801C45.8132 48.46 46.3245 48.6718 46.7014 49.0487C47.0784 49.4257 47.2901 49.9369 47.2901 50.47C47.2901 51.0031 47.0784 51.5143 46.7014 51.8913C46.3245 52.2682 45.8132 52.48 45.2801 52.48L45.3001 52.46ZM18.4101 38H31.8501C32.3805 38 32.8893 38.2107 33.2643 38.5858C33.6394 38.9609 33.8501 39.4696 33.8501 40C33.8501 40.5304 33.6394 41.0391 33.2643 41.4142C32.8893 41.7893 32.3805 42 31.8501 42H18.4101C17.8797 42 17.371 41.7893 16.9959 41.4142C16.6208 41.0391 16.4101 40.5304 16.4101 40C16.4101 39.4696 16.6208 38.9609 16.9959 38.5858C17.371 38.2107 17.8797 38 18.4101 38V38ZM45.2801 31.5H18.4101C17.8797 31.5 17.371 31.2893 16.9959 30.9142C16.6208 30.5391 16.4101 30.0304 16.4101 29.5C16.4101 28.9696 16.6208 28.4609 16.9959 28.0858C17.371 27.7107 17.8797 27.5 18.4101 27.5H45.2801C45.7735 27.5495 46.2309 27.7806 46.5635 28.1483C46.8962 28.516 47.0804 28.9941 47.0804 29.49C47.0804 29.9859 46.8962 30.464 46.5635 30.8317C46.2309 31.1994 45.7735 31.4305 45.2801 31.48V31.5ZM53.1101 17.21H10.8901V14.61C10.8875 14.199 10.9658 13.7914 11.1207 13.4107C11.2756 13.0299 11.5039 12.6834 11.7927 12.3909C12.0815 12.0984 12.4251 11.8656 12.8038 11.7059C13.1826 11.5462 13.5891 11.4626 14.0001 11.46H20.6101V12.46C20.6101 12.9904 20.8208 13.4991 21.1959 13.8742C21.571 14.2493 22.0797 14.46 22.6101 14.46H41.3801C41.9106 14.46 42.4193 14.2493 42.7943 13.8742C43.1694 13.4991 43.3801 12.9904 43.3801 12.46V11.46H50.0001C50.4112 11.46 50.8182 11.541 51.1979 11.6983C51.5777 11.8556 51.9227 12.0861 52.2134 12.3768C52.504 12.6674 52.7346 13.0125 52.8919 13.3922C53.0492 13.7719 53.1301 14.179 53.1301 14.59L53.1101 17.21Z" fill="#c4c4c4"/>
</svg>
