<?xml version="1.0" encoding="iso-8859-1"?>
<!-- Generator: Adobe Illustrator 22.1.0, SVG Export Plug-In . SVG Version: 6.00 Build 0)  -->
<svg version="1.1" id="Layer_1" xmlns="http://www.w3.org/2000/svg" xmlns:xlink="http://www.w3.org/1999/xlink" x="0px" y="0px"
	 viewBox="0 0 25 28" style="enable-background:new 0 0 25 28;" xml:space="preserve">
<g id="weight-scale_2_">
	<path d="M19,6.5c0-1.291-0.38-2.49-1.028-3.5C16.816,1.197,14.8,0,12.5,0c-2.3,0-4.315,1.197-5.472,3C6.381,4.01,6,5.209,6,6.5
		c0,3.59,2.91,6.5,6.5,6.5C16.09,13,19,10.09,19,6.5z M7.025,7H9V6H7.025c0.102-1.133,0.549-2.17,1.235-3
		C9.171,1.9,10.5,1.16,12,1.025V3h1V1.025C14.5,1.16,15.829,1.9,16.739,3c0.688,0.83,1.133,1.867,1.235,3H16v1h1.975
		c-0.238,2.633-2.341,4.736-4.975,4.975V10h-1v1.975C9.366,11.736,7.265,9.633,7.025,7z"/>
	<path d="M13.56,7.561c0.586-0.586,0.586-1.535,0-2.121c-0.46-0.461-1.14-0.545-1.696-0.283L9.707,3L9.672,2.965L9.637,3
		L8.965,3.672l2.192,2.191C10.894,6.42,10.979,7.1,11.439,7.561C12.025,8.146,12.976,8.146,13.56,7.561z"/>
	<path style="opacity:0.75;" d="M21,3h-0.76C20.724,4.068,21,5.25,21,6.5c0,4.525-3.54,8.215-8,8.475V28h8c2.209,0,4-1.791,4-4V7
		C25,4.791,23.209,3,21,3z"/>
	<path style="opacity:0.75;" d="M4,6.5C4,5.25,4.276,4.068,4.761,3H4C1.791,3,0,4.791,0,7v17c0,2.209,1.791,4,4,4h8V14.975
		C7.54,14.715,4,11.025,4,6.5z"/>
</g>
</svg>
